<svg xmlns="http://www.w3.org/2000/svg" viewBox="0 0 291 273"><defs><style>.cls-1{fill:#fff;}</style></defs><g id="Layer_2" data-name="Layer 2"><g id="Layer_1-2" data-name="Layer 1"><path class="cls-1" d="M58.93,188.61,47.3,159.8v28.81H41.23V141h5.1L58,169.81V141h6.13v47.6Z"/><path class="cls-1" d="M99.17,175.37H90.9l-3,13.3H81.6l11-47.6h4.84l11.11,47.6H102.2Zm-6.85-6.07h5.43L95,157.61Z"/><path class="cls-1" d="M122.74,141h26.94v6.14h-10.4v41.46h-6.14V147.15h-10.4Z"/><path class="cls-1" d="M165.44,141h6.07V176c0,3.29.71,5,1.68,5.75a5.44,5.44,0,0,0,5.81,0c1-.78,1.68-2.46,1.68-5.75V141h6.07V176c0,3.94-.84,7-2.58,9.11-1.29,1.74-3.75,3.55-8.07,3.55s-6.79-1.81-8.08-3.55c-1.74-2.13-2.58-5.17-2.58-9.11Z"/><path class="cls-1" d="M226.6,188.61h-6.13V174.53c0-4.2-2-6.27-6.07-6.27h-3.81v20.35h-6.07V141h9.88c8.2,0,12.07,4.71,12.07,13.56,0,4.39-1,7.75-2.84,10a2,2,0,0,0-.26.33,1.8,1.8,0,0,1-.38.32,12.46,12.46,0,0,1,3.61,9.3Zm-16-26.48h3.81a7.33,7.33,0,0,0,3.42-.58,7.59,7.59,0,0,0,1.16-.91c1-1.22,1.42-3.23,1.42-6.07,0-3.16-.51-5-1.48-6.13s-2.52-1.29-4.52-1.29h-3.81Z"/><path class="cls-1" d="M264.07,141.07v6.08H250.44v14.66h13.63v6.07H250.44V182.6h13.63v6.07h-19.7v-47.6Z"/><path class="cls-1" d="M63,256.4H69.1v3c0,2.77.52,4.78,1.49,6a3,3,0,0,0,1.16.91,5.5,5.5,0,0,0,2.65.51,4.66,4.66,0,0,0,4.39-2.58,10.56,10.56,0,0,0,.84-4.52,6.45,6.45,0,0,0-1.87-4.84,13.45,13.45,0,0,0-3.94-2.33l-1.17-.51a18,18,0,0,1-5.74-3.56A12.73,12.73,0,0,1,63,239c0-4.06,1.1-7.49,3.16-9.88a10.65,10.65,0,0,1,8.21-3.74c4.65,0,7.23,2,8.59,3.74,1.87,2.39,2.77,5.69,2.77,9.88v3H79.63v-3c0-3.68-.84-5.68-1.94-6.58a4.91,4.91,0,0,0-3.29-.91,4.47,4.47,0,0,0-4.46,3A11.23,11.23,0,0,0,69.1,239,6.74,6.74,0,0,0,71,243.87a10.9,10.9,0,0,0,4.14,2.59l1,.45a16.54,16.54,0,0,1,5.62,3.36,12.37,12.37,0,0,1,4,9.49c0,7.3-4.06,13.18-11.36,13.18-7.56,0-11.37-5-11.37-13.5Z"/><path class="cls-1" d="M101.59,238.9c0-4.2.91-7.49,2.71-9.82a10.76,10.76,0,0,1,3.1-2.52,11.93,11.93,0,0,1,5.49-1.22c4.65,0,7.24,2,8.59,3.74,1.81,2.33,2.72,5.62,2.72,9.82v20.47c0,4.2-.91,7.49-2.72,9.82-1.35,1.74-3.94,3.75-8.59,3.75s-7.23-2-8.59-3.75c-1.8-2.33-2.71-5.62-2.71-9.82Zm6.07,20.47c0,3.81.84,5.62,1.94,6.53a4.86,4.86,0,0,0,3.29,1,5.07,5.07,0,0,0,3.3-1c1.09-.91,1.93-2.72,1.93-6.53V238.9c0-3.68-.84-5.62-1.93-6.52a4.93,4.93,0,0,0-3.3-.91,4.74,4.74,0,0,0-3.29.91c-1.1.9-1.94,2.84-1.94,6.52Z"/><path class="cls-1" d="M158.23,259.7H150l-3,13.3h-6.26l11-47.6h4.84L167.6,273h-6.33Zm-6.84-6.08h5.42l-2.71-11.69Z"/><path class="cls-1" d="M187.88,252.21v20.73h-6.07v-47.6h9.88c8.08,0,12.15,4.84,12.15,13.37,0,8.72-3.94,13.5-12.15,13.5Zm0-20.74v14.6h3.81a6.88,6.88,0,0,0,3.43-.58,7.59,7.59,0,0,0,1.16-.91c1-1,1.42-3,1.42-5.87,0-3.1-.52-4.91-1.49-6s-2.51-1.29-4.52-1.29Z"/><path class="cls-1" d="M219.53,256.4h6.07v3c0,2.77.52,4.78,1.49,6a3,3,0,0,0,1.16.91,5.5,5.5,0,0,0,2.65.51,4.65,4.65,0,0,0,4.39-2.58,10.56,10.56,0,0,0,.84-4.52,6.41,6.41,0,0,0-1.87-4.84,13.45,13.45,0,0,0-3.94-2.33l-1.16-.51a17.94,17.94,0,0,1-5.75-3.56,12.73,12.73,0,0,1-3.88-9.56c0-4.06,1.1-7.49,3.17-9.88a10.62,10.62,0,0,1,8.2-3.74c4.65,0,7.23,2,8.59,3.74,1.87,2.39,2.78,5.69,2.78,9.88v3h-6.14v-3c0-3.68-.84-5.68-1.94-6.58a4.89,4.89,0,0,0-3.29-.91,4.47,4.47,0,0,0-4.46,3,11.23,11.23,0,0,0-.84,4.45,6.7,6.7,0,0,0,1.88,4.91,10.86,10.86,0,0,0,4.13,2.59l1,.45a16.44,16.44,0,0,1,5.62,3.36,12.38,12.38,0,0,1,4,9.49c0,7.3-4.07,13.18-11.37,13.18-7.56,0-11.37-5-11.37-13.5Z"/><path class="cls-1" d="M136.12,65.2a202.81,202.81,0,0,1-54.37-7.52C33,44.12,1,16.75.65,16.47A1.87,1.87,0,1,1,3.1,13.64c.31.27,31.79,27.16,79.8,40.47,44.21,12.26,111.94,15.18,183.61-40.54a1.88,1.88,0,0,1,2.3,3C221,53.68,174.91,65.2,136.12,65.2Z"/><path class="cls-1" d="M79.55,21.71a5.72,5.72,0,0,1,4,1.36c8.88,7.93-38,21.3-38,21.3S68.09,21.71,79.55,21.71Zm0-3.75C66.9,18,45.27,39.29,42.84,41.72a3.75,3.75,0,0,0,2.66,6.4,3.65,3.65,0,0,0,1-.14c14.7-4.19,39.67-12.54,41.69-21.31A6.5,6.5,0,0,0,86,20.27,9.4,9.4,0,0,0,79.55,18Z"/><path class="cls-1" d="M109.16,32.52a7.78,7.78,0,0,1,2.69.47c11.91,4.37-28.34,23.23-28.34,23.23s14.11-23.7,25.65-23.7Zm0-3.75c-13.29,0-27.32,22.92-28.87,25.53A3.75,3.75,0,0,0,83.51,60a3.71,3.71,0,0,0,1.59-.35c.32-.15,7.94-3.73,15.66-8.19,15.21-8.79,17.18-13,17-16.35-.05-1.2-.61-4.13-4.65-5.61a11.38,11.38,0,0,0-4-.7Z"/><path class="cls-1" d="M138.91,36.27a6.49,6.49,0,0,1,1.92.29C152.34,40.14,120.2,63,120.2,63s8.12-26.77,18.71-26.77Zm0-3.75C126.18,32.52,118.1,57,116.61,62a3.76,3.76,0,0,0,5.77,4.14c9.74-6.95,25.89-19.79,24.6-27.79-.23-1.48-1.2-4.14-5-5.33a10.13,10.13,0,0,0-3-.46Z"/><path class="cls-1" d="M178.46,32.4a4.64,4.64,0,0,1,1.28.17c10.16,2.8-24.15,29.71-24.15,29.71S168.44,32.4,178.46,32.4Zm0-3.75c-11.59,0-23.07,24.61-26.31,32.15a3.75,3.75,0,0,0,5.76,4.44c.28-.23,7-5.53,13.72-11.74,13.06-12.12,14.26-16.77,13.62-20A6,6,0,0,0,180.73,29a8.63,8.63,0,0,0-2.27-.3Z"/><path class="cls-1" d="M207.4,26.77h.34c8.33.8-16.21,28.61-16.21,28.61s7.66-28.62,15.87-28.62Zm0-3.75c-10,0-17,22-19.49,31.4a3.75,3.75,0,0,0,6.43,3.45c.21-.24,5.11-5.8,9.84-12.1C213,34,214,29.52,212.81,26.42a5.41,5.41,0,0,0-4.72-3.37q-.34,0-.69,0Z"/><path class="cls-1" d="M233.14,20.56c7.27,0-13.43,24-13.43,24s5.79-23.78,13.34-24Zm0-3.75c-9.6.27-15.14,18.88-17.08,26.87A3.74,3.74,0,0,0,218,47.9a3.8,3.8,0,0,0,1.72.42A3.75,3.75,0,0,0,222.55,47C240.79,25.87,238.73,21.4,238,19.71a5.1,5.1,0,0,0-4.81-2.9Z"/><path class="cls-1" d="M254,6.41c6.66,0-10.79,25.73-10.79,25.73S245,8.06,253.36,6.48a3.21,3.21,0,0,1,.65-.07Zm0-3.75a7.16,7.16,0,0,0-1.35.13c-10.35,2-12.7,22.75-13.18,29.07a3.76,3.76,0,0,0,6.85,2.39c15.5-22.87,13.08-27.42,12.29-28.92A5.1,5.1,0,0,0,254,2.66Z"/><path class="cls-1" d="M45.54,42.13s33,36.52,19.52,41.29a5.87,5.87,0,0,1-1.93.34C51,83.76,45.54,42.13,45.54,42.13Zm0-3.75a3.63,3.63,0,0,0-1.57.35,3.75,3.75,0,0,0-2.15,3.89c1.38,10.53,7,44.89,21.31,44.89A9.55,9.55,0,0,0,66.31,87a8.22,8.22,0,0,0,5.44-5.83C74.62,69.82,54.54,46.5,48.32,39.62a3.71,3.71,0,0,0-2.78-1.24Z"/><path class="cls-1" d="M81.52,55.67s29.93,26.55,18.81,30.14a5.37,5.37,0,0,1-1.66.26c-10.21,0-17.15-30.4-17.15-30.4Zm0-3.75a3.76,3.76,0,0,0-3.65,4.59c1.78,7.81,8.55,33.31,20.8,33.31a9.32,9.32,0,0,0,2.81-.44,6.89,6.89,0,0,0,4.92-5.19C108.23,75.47,91.35,59.38,84,52.87a3.71,3.71,0,0,0-2.49-.95Z"/><path class="cls-1" d="M120.2,63s31.35,19.18,23.12,22.77a4.26,4.26,0,0,1-1.65.33c-8.42,0-21.47-23.1-21.47-23.1Zm0-3.75a3.76,3.76,0,0,0-3.27,5.6c3.32,5.86,14.9,25,24.74,25a7.86,7.86,0,0,0,3.15-.65,5.66,5.66,0,0,0,3.61-4.86c.21-3-1.3-7-13.61-16-6.23-4.58-12.4-8.37-12.66-8.53a3.78,3.78,0,0,0-2-.55Z"/><path class="cls-1" d="M155.59,62.28s40,10,32.09,16a5.67,5.67,0,0,1-3.48,1c-9.89,0-28.61-17-28.61-17Zm0-3.75a3.76,3.76,0,0,0-2.52,6.53c2,1.84,20.11,18,31.13,18a9.31,9.31,0,0,0,5.73-1.78,5.71,5.71,0,0,0,2.43-5.78c-.61-3-3.39-6.59-19.47-12-8.17-2.75-16.06-4.73-16.39-4.81a3.56,3.56,0,0,0-.91-.12Z"/><path class="cls-1" d="M191.53,55.39S230.76,60.53,225,66.62a5.2,5.2,0,0,1-3.9,1.29c-9.54,0-29.54-12.52-29.54-12.52Zm0-3.75a3.74,3.74,0,0,0-2,6.92c2.14,1.35,21.21,13.1,31.53,13.1a8.68,8.68,0,0,0,6.61-2.46A5.28,5.28,0,0,0,229,63.64c-1.12-3.18-5-6-20.44-9.16-8.29-1.72-16.21-2.77-16.54-2.81a4,4,0,0,0-.49,0Z"/><path class="cls-1" d="M219.71,44.56s38.75,2,31.58,6.36a9.57,9.57,0,0,1-4.91,1c-9.81,0-26.67-7.41-26.67-7.41Zm0-3.75A3.75,3.75,0,0,0,218.2,48c.72.31,17.7,7.72,28.18,7.72a13,13,0,0,0,6.86-1.59c3.14-1.91,2.75-4.57,2.55-5.34-.62-2.47-1.57-6.21-35.89-8Z"/><path class="cls-1" d="M243.22,32.14s40.72,1.33,32,5.34a14.09,14.09,0,0,1-5.78,1c-10.44,0-26.2-6.34-26.2-6.34Zm0-3.75a3.75,3.75,0,0,0-1.4,7.23c.68.27,16.56,6.61,27.6,6.61a17.45,17.45,0,0,0,7.34-1.34c3.64-1.67,3.55-4.28,3.34-5.33-.57-2.81-1.21-6-36.75-7.17Z"/><path class="cls-1" d="M284.13,3.75a3.61,3.61,0,0,1,2.32.75C292.11,9,265.61,17,265.61,17S277.47,3.75,284.13,3.75Zm0-3.75C276.2,0,265,12.08,262.82,14.5a3.74,3.74,0,0,0,3.88,6.09c15.21-4.61,23.35-9.23,24.2-13.73a5.35,5.35,0,0,0-2.12-5.3A7.41,7.41,0,0,0,284.13,0Z"/></g></g></svg>