<svg xmlns="http://www.w3.org/2000/svg" viewBox="0 0 631.03 592"><defs><style>.cls-1{fill:#1a1a1a;}</style></defs><g id="Layer_2" data-name="Layer 2"><g id="Layer_1-2" data-name="Layer 1"><path d="M127.78,409l-25.21-62.46V409H89.41V305.78h11.06l25.21,62.46V305.78H139V409Z"/><path d="M215,380.29H197.12l-6.59,28.85H177l23.81-103.22h10.5l24.09,103.22H221.62ZM200.2,367.12H212l-5.88-25.35Z"/><path d="M266.17,305.78h58.4v13.31H302V409h-13.3V319.09H266.17Z"/><path d="M358.75,305.78h13.17v75.76c0,7.15,1.54,10.79,3.64,12.47s4.48,1.82,6.3,1.82,4.2,0,6.3-1.82,3.65-5.32,3.65-12.47V305.78H405v75.76c0,8.55-1.82,15.13-5.6,19.75-2.8,3.78-8.12,7.71-17.51,7.71s-14.7-3.93-17.5-7.71c-3.79-4.62-5.61-11.2-5.61-19.75Z"/><path d="M491.39,409h-13.3V378.47c0-9.11-4.35-13.59-13.17-13.59h-8.26V409H443.49V305.78h21.43c17.79,0,26.19,10.22,26.19,29.41,0,9.52-2.1,16.81-6.16,21.71a3.05,3.05,0,0,0-.56.7,3.71,3.71,0,0,1-.84.7c5,4.9,7.84,11.63,7.84,20.17Zm-34.73-57.42h8.26c3.5,0,6-.42,7.42-1.26a17.62,17.62,0,0,0,2.52-2c2.1-2.67,3.08-7,3.08-13.17,0-6.86-1.12-10.92-3.22-13.31-2.24-2.23-5.46-2.79-9.8-2.79h-8.26Z"/><path d="M572.63,305.92v13.17H543.08v31.78h29.55V364H543.08V396h29.55v13.17H529.91V305.92Z"/><path d="M136.68,556h13.17v6.58c0,6,1.12,10.36,3.22,13a6.62,6.62,0,0,0,2.52,2,11.84,11.84,0,0,0,5.74,1.11,10.08,10.08,0,0,0,9.52-5.6c1.54-3.08,1.82-7,1.82-9.8a14,14,0,0,0-4.06-10.5,29.28,29.28,0,0,0-8.54-5l-2.52-1.11a39.35,39.35,0,0,1-12.47-7.71c-5.6-5.46-8.4-12.33-8.4-20.73,0-8.82,2.38-16.24,6.86-21.42a23,23,0,0,1,17.79-8.12c10.08,0,15.69,4.33,18.63,8.12,4.06,5.18,6,12.32,6,21.42v6.59H172.67v-6.59c0-8-1.82-12.32-4.2-14.28s-5.32-2-7.14-2c-5.46,0-8.12,2.94-9.66,6.58a24.14,24.14,0,0,0-1.82,9.66,14.55,14.55,0,0,0,4.06,10.65,23.73,23.73,0,0,0,9,5.6l2.24,1c2.66,1.12,7.7,2.94,12.18,7.28C183,548,186,554.89,186,563.29c0,15.83-8.82,28.57-24.65,28.57-16.39,0-24.65-10.78-24.65-29.27Z"/><path d="M220.3,518.05c0-9.1,2-16.24,5.88-21.28a23,23,0,0,1,6.72-5.47,25.85,25.85,0,0,1,11.91-2.65c10.08,0,15.68,4.33,18.62,8.12,3.93,5,5.89,12.18,5.89,21.28v44.4c0,9.1-2,16.24-5.89,21.29-2.94,3.78-8.54,8.12-18.62,8.12s-15.69-4.34-18.63-8.12c-3.92-5-5.88-12.19-5.88-21.29Zm13.17,44.4c0,8.27,1.82,12.19,4.2,14.15a10.51,10.51,0,0,0,7.14,2.09A10.91,10.91,0,0,0,252,576.6c2.38-2,4.2-5.88,4.2-14.15v-44.4c0-8-1.82-12.18-4.2-14.14s-5.32-2-7.14-2c-2.1,0-4.76,0-7.14,2s-4.2,6.16-4.2,14.14Z"/><path d="M343.13,563.15H325.2L318.62,592H305l23.81-103.22h10.5L363.44,592H349.71ZM328.29,550h11.76l-5.88-25.35Z"/><path d="M407.43,546.91v45H394.26V488.65h21.43c17.5,0,26.33,10.5,26.33,29,0,18.9-8.55,29.27-26.33,29.27Zm0-45V533.6h8.26c3.64,0,6.16-.42,7.42-1.26a17.62,17.62,0,0,0,2.52-2c2.1-2.1,3.08-6.44,3.08-12.74,0-6.73-1.12-10.65-3.22-12.89s-5.46-2.8-9.8-2.8Z"/><path d="M476.06,556h13.16v6.58c0,6,1.12,10.36,3.22,13a6.62,6.62,0,0,0,2.52,2,11.89,11.89,0,0,0,5.74,1.11,10.09,10.09,0,0,0,9.53-5.6c1.54-3.08,1.82-7,1.82-9.8a14,14,0,0,0-4.06-10.5,29.28,29.28,0,0,0-8.54-5l-2.53-1.11a39.21,39.21,0,0,1-12.46-7.71c-5.6-5.46-8.4-12.33-8.4-20.73,0-8.82,2.38-16.24,6.86-21.42a23,23,0,0,1,17.78-8.12c10.09,0,15.69,4.33,18.63,8.12,4.06,5.18,6,12.32,6,21.42v6.59h-13.3v-6.59c0-8-1.82-12.32-4.2-14.28s-5.32-2-7.15-2c-5.46,0-8.12,2.94-9.66,6.58a24.14,24.14,0,0,0-1.82,9.66,14.55,14.55,0,0,0,4.06,10.65,23.69,23.69,0,0,0,9,5.6l2.24,1c2.66,1.12,7.7,2.94,12.18,7.28,5.74,5.32,8.68,12.19,8.68,20.59,0,15.83-8.82,28.57-24.65,28.57-16.38,0-24.64-10.78-24.64-29.27Z"/><path class="cls-1" d="M295.18,141.38a440.56,440.56,0,0,1-117.9-16.29C71.49,95.68,2.09,36.32,1.41,35.72a4.07,4.07,0,1,1,5.32-6.15c.67.59,68.92,58.9,173,87.77,95.86,26.58,242.75,32.91,398.16-87.9a4.07,4.07,0,1,1,5,6.42C479.29,116.41,379.29,141.38,295.18,141.38Z"/><path class="cls-1" d="M172.5,47.07a12.48,12.48,0,0,1,8.6,3c19.25,17.19-82.44,46.19-82.44,46.19s49-49.15,73.84-49.15Zm0-8.13c-27.43,0-74.34,46.26-79.6,51.54a8.13,8.13,0,0,0,8,13.56c31.89-9.09,86-27.19,90.41-46.21,1.16-5.06-.58-10.11-4.79-13.87a20.35,20.35,0,0,0-14-5Z"/><path class="cls-1" d="M236.72,70.52a16.68,16.68,0,0,1,5.82,1c25.82,9.47-61.44,50.38-61.44,50.38s30.58-51.39,55.62-51.4Zm0-8.13c-28.83,0-59.24,49.7-62.61,55.37a8.13,8.13,0,0,0,10.44,11.52c.69-.32,17.21-8.09,33.95-17.76,33-19,37.25-28.3,36.94-35.46-.12-2.58-1.32-8.94-10.1-12.16a25.06,25.06,0,0,0-8.62-1.51Z"/><path class="cls-1" d="M301.23,78.65a13.72,13.72,0,0,1,4.15.63c25,7.75-44.73,57.43-44.73,57.43s17.61-58.06,40.58-58.06Zm0-8.14c-27.61,0-45.14,53.18-48.37,63.84a8.13,8.13,0,0,0,12.5,9c21.13-15.05,56.15-42.9,53.37-60.26-.52-3.21-2.62-9-10.94-11.55a22,22,0,0,0-6.56-1Z"/><path class="cls-1" d="M387,70.25a10.46,10.46,0,0,1,2.78.37c22,6.08-52.36,64.44-52.36,64.44S365.26,70.25,387,70.25Zm0-8.13c-25.13,0-50,53.37-57.06,69.73a8.13,8.13,0,0,0,12.49,9.61c.62-.48,15.24-12,29.76-25.45,28.32-26.29,30.93-36.36,29.53-43.33-1-4.84-4.54-8.45-9.79-9.9a18.6,18.6,0,0,0-4.93-.66Z"/><path class="cls-1" d="M449.75,58.05l.72,0c18.08,1.72-35.13,62-35.13,62s16.6-62.06,34.41-62.06Zm0-8.13C428,49.92,413,97.53,407.48,118a8.14,8.14,0,0,0,14,7.49c.44-.51,11.07-12.57,21.33-26.23C462,73.72,464.12,64,461.47,57.3A11.69,11.69,0,0,0,451.25,50c-.5-.05-1-.07-1.5-.07Z"/><path class="cls-1" d="M505.57,44.59c15.77,0-29.13,52.05-29.13,52.05s12.57-51.59,28.92-52Zm0-8.13c-20.81.57-32.82,40.93-37,58.25A8.13,8.13,0,0,0,482.6,102C522.14,56.11,517.7,46.4,516,42.74c-1.8-3.93-5.71-6.28-10.44-6.28Z"/><path class="cls-1" d="M550.82,13.9c14.45,0-23.39,55.8-23.39,55.8s3.91-52.21,22-55.66a8.18,8.18,0,0,1,1.4-.14Zm0-8.14a15.7,15.7,0,0,0-2.92.29c-22.46,4.28-27.55,49.34-28.58,63.05a8.13,8.13,0,0,0,14.84,5.17c33.62-49.58,28.37-59.47,26.65-62.72a11.05,11.05,0,0,0-10-5.79Z"/><path class="cls-1" d="M98.76,91.36s71.6,79.2,42.33,89.53a12.51,12.51,0,0,1-4.2.75c-26.32,0-38.13-90.28-38.13-90.28Zm0-8.13a8,8,0,0,0-3.4.75,8.13,8.13,0,0,0-4.66,8.43c3,22.85,15.15,97.37,46.2,97.37a20.63,20.63,0,0,0,6.91-1.22,17.8,17.8,0,0,0,11.8-12.63c6.21-24.51-37.32-75.1-50.81-90a8.13,8.13,0,0,0-6-2.68Z"/><path class="cls-1" d="M176.78,120.73s64.9,57.56,40.79,65.34a11.76,11.76,0,0,1-3.59.58c-22.16,0-37.2-65.92-37.2-65.92Zm0-8.14a8.14,8.14,0,0,0-7.92,9.94c3.86,16.95,18.54,72.25,45.12,72.25a19.68,19.68,0,0,0,6.09-1c5.74-1.85,9.52-5.85,10.66-11.24,4-18.92-32.63-53.81-48.55-67.93a8.13,8.13,0,0,0-5.4-2Z"/><path class="cls-1" d="M260.65,136.71s68,41.58,50.14,49.36a8.82,8.82,0,0,1-3.58.73c-18.25,0-46.56-50.09-46.56-50.09Zm0-8.13a8.13,8.13,0,0,0-7.09,12.13c7.19,12.72,32.3,54.22,53.64,54.22a17,17,0,0,0,6.83-1.4c4.65-2,7.51-5.88,7.83-10.54.45-6.44-2.82-15.11-29.52-34.73-13.51-9.94-26.89-18.14-27.45-18.49a8.12,8.12,0,0,0-4.24-1.19Z"/><path class="cls-1" d="M337.4,135.06s86.79,21.71,69.58,34.62a12.22,12.22,0,0,1-7.54,2.23c-21.46,0-62-36.85-62-36.85Zm0-8.13a8.13,8.13,0,0,0-5.46,14.16c4.39,4,43.59,38.95,67.5,38.95a20.18,20.18,0,0,0,12.42-3.85c4.31-3.23,6.23-7.8,5.27-12.54-1.32-6.58-7.36-14.28-42.23-26-17.72-6-34.8-10.27-35.52-10.45a8.38,8.38,0,0,0-2-.24Z"/><path class="cls-1" d="M415.34,120.11s85.07,11.15,72.5,24.35c-1.87,2-4.81,2.81-8.45,2.81-20.69,0-64.05-27.16-64.05-27.16Zm0-8.14A8.13,8.13,0,0,0,411,127c4.64,2.9,46,28.4,68.37,28.4,6.15,0,11-1.79,14.34-5.33A11.5,11.5,0,0,0,496.59,138c-2.44-6.91-10.91-12.93-44.33-19.87-18-3.74-35.14-6-35.86-6.1a7.79,7.79,0,0,0-1.07-.07Z"/><path class="cls-1" d="M476.44,96.64s84,4.32,68.48,13.79c-2.62,1.6-6.32,2.27-10.65,2.27-21.28,0-57.83-16.06-57.83-16.06Zm0-8.14a8.13,8.13,0,0,0-3.27,15.58c1.56.69,38.37,16.75,61.1,16.75,6.2,0,11.07-1.13,14.89-3.45,6.79-4.15,6-9.91,5.52-11.57-1.35-5.36-3.4-13.47-77.82-17.3Z"/><path class="cls-1" d="M527.43,69.7s88.28,2.89,69.34,11.58c-3.34,1.53-7.67,2.16-12.52,2.16-22.65,0-56.82-13.74-56.82-13.74Zm0-8.13a8.13,8.13,0,0,0-3,15.68c1.45.58,35.91,14.33,59.85,14.33,6.44,0,11.65-1,15.91-2.91,7.9-3.62,7.69-9.29,7.23-11.56-1.23-6.1-2.62-13-79.69-15.54Z"/><path class="cls-1" d="M616.14,8.13a7.89,7.89,0,0,1,5,1.63C633.44,19.44,576,36.88,576,36.88S601.69,8.14,616.14,8.13Zm0-8.13c-17.22,0-41.53,26.2-46.23,31.45A8.13,8.13,0,0,0,576,45a8,8,0,0,0,2.36-.35c33-10,50.64-20,52.49-29.78a11.66,11.66,0,0,0-4.61-11.51A16.1,16.1,0,0,0,616.15,0Z"/></g></g></svg>