<svg xmlns="http://www.w3.org/2000/svg" viewBox="0 0 647.11 263.81"><defs><style>.cls-1{fill:#1a1a1a;}</style></defs><g id="Layer_2" data-name="Layer 2"><g id="Layer_1-2" data-name="Layer 1"><path d="M25.69,263.72,8.81,221.91v41.81H0V194.63H7.41l16.87,41.81V194.63h8.91v69.09Z"/><path d="M84.1,244.5h-12l-4.41,19.31H58.6l15.94-69.09h7l16.12,69.09H88.5Zm-9.94-8.81H82l-3.94-17Z"/><path d="M118.32,194.63h39.1v8.91h-15.1v60.18h-8.9V203.54h-15.1Z"/><path d="M180.3,194.63h8.81v50.71c0,4.79,1,7.22,2.44,8.35a7.89,7.89,0,0,0,8.43,0c1.41-1.13,2.44-3.56,2.44-8.35V194.63h8.81v50.71c0,5.72-1.21,10.13-3.75,13.22-1.87,2.54-5.43,5.16-11.71,5.16s-9.85-2.62-11.72-5.16c-2.53-3.09-3.75-7.5-3.75-13.22Z"/><path d="M269.08,263.72h-8.9V243.28c0-6.09-2.91-9.09-8.81-9.09h-5.54v29.53H237V194.63h14.35c11.9,0,17.53,6.84,17.53,19.69,0,6.37-1.41,11.25-4.13,14.53a1.92,1.92,0,0,0-.37.47,2.56,2.56,0,0,1-.57.46c3.38,3.28,5.25,7.79,5.25,13.5Zm-23.25-38.44h5.54a10.47,10.47,0,0,0,5-.84,11.37,11.37,0,0,0,1.69-1.31c1.41-1.79,2.06-4.69,2.06-8.81,0-4.6-.75-7.32-2.15-8.91s-3.66-1.87-6.56-1.87h-5.54Z"/><path d="M323.46,194.72v8.82H303.68v21.27h19.78v8.82H303.68V255h19.78v8.81H294.87V194.72Z"/><path d="M386.93,239.72h8.81v4.41c0,4,.75,6.93,2.16,8.72a4.32,4.32,0,0,0,1.69,1.31,7.88,7.88,0,0,0,3.84.75,6.76,6.76,0,0,0,6.38-3.75A15.32,15.32,0,0,0,411,244.6a9.36,9.36,0,0,0-2.71-7,19.59,19.59,0,0,0-5.72-3.38l-1.69-.75a26,26,0,0,1-8.34-5.16,18.5,18.5,0,0,1-5.63-13.87c0-5.91,1.59-10.87,4.59-14.34a15.42,15.42,0,0,1,11.91-5.44c6.75,0,10.5,2.9,12.47,5.44,2.72,3.47,4,8.25,4,14.34v4.41H411v-4.41c0-5.34-1.21-8.25-2.81-9.56a7.17,7.17,0,0,0-4.78-1.31,6.46,6.46,0,0,0-6.47,4.4,16.27,16.27,0,0,0-1.22,6.47,9.73,9.73,0,0,0,2.72,7.12,15.86,15.86,0,0,0,6,3.75l1.5.66a24.08,24.08,0,0,1,8.16,4.88,18,18,0,0,1,5.81,13.78c0,10.59-5.91,19.12-16.5,19.12-11,0-16.5-7.22-16.5-19.59Z"/><path d="M442.9,214.32c0-6.1,1.32-10.88,3.94-14.25a15.42,15.42,0,0,1,4.5-3.66,17.31,17.31,0,0,1,8-1.78c6.75,0,10.5,2.9,12.47,5.44,2.62,3.37,3.94,8.15,3.94,14.25V244c0,6.1-1.32,10.88-3.94,14.26-2,2.52-5.72,5.43-12.47,5.43s-10.5-2.91-12.47-5.43c-2.62-3.38-3.94-8.16-3.94-14.26ZM451.72,244c0,5.54,1.22,8.16,2.81,9.47a7,7,0,0,0,4.78,1.41,7.27,7.27,0,0,0,4.78-1.41c1.6-1.31,2.81-3.93,2.81-9.47V214.32c0-5.35-1.21-8.16-2.81-9.47a7.17,7.17,0,0,0-4.78-1.31,6.92,6.92,0,0,0-4.78,1.31c-1.59,1.31-2.81,4.12-2.81,9.47Z"/><path d="M525.13,244.5h-12l-4.41,19.31h-9.09l15.94-69.09h7l16.12,69.09h-9.19Zm-9.94-8.81h7.88l-3.94-17Z"/><path d="M568.17,233.63v30.09h-8.82V194.63H573.7c11.72,0,17.62,7,17.62,19.41,0,12.65-5.72,19.59-17.62,19.59Zm0-30.09v21.18h5.53c2.43,0,4.12-.28,5-.84a11.7,11.7,0,0,0,1.68-1.31c1.41-1.41,2.07-4.32,2.07-8.53,0-4.51-.75-7.13-2.16-8.63s-3.66-1.87-6.56-1.87Z"/><path d="M614.11,239.72h8.81v4.41c0,4,.75,6.93,2.16,8.72a4.35,4.35,0,0,0,1.68,1.31,8,8,0,0,0,3.85.75,6.75,6.75,0,0,0,6.37-3.75,15.33,15.33,0,0,0,1.22-6.56,9.32,9.32,0,0,0-2.72-7,19.46,19.46,0,0,0-5.72-3.38l-1.68-.75a26,26,0,0,1-8.35-5.16,18.49,18.49,0,0,1-5.62-13.87c0-5.91,1.59-10.87,4.59-14.34a15.4,15.4,0,0,1,11.91-5.44c6.75,0,10.5,2.9,12.47,5.44,2.71,3.47,4,8.25,4,14.34v4.41H638.2v-4.41c0-5.34-1.22-8.25-2.81-9.56a7.18,7.18,0,0,0-4.78-1.31,6.46,6.46,0,0,0-6.47,4.4,16.09,16.09,0,0,0-1.22,6.47,9.69,9.69,0,0,0,2.72,7.12,15.79,15.79,0,0,0,6,3.75l1.5.66a24.06,24.06,0,0,1,8.15,4.88,18,18,0,0,1,5.82,13.78c0,10.59-5.91,19.12-16.5,19.12-11,0-16.5-7.22-16.5-19.59Z"/><path class="cls-1" d="M309.94,94.64A294.57,294.57,0,0,1,231,83.73C160.2,64.05,113.75,24.31,113.29,23.91a2.72,2.72,0,0,1,3.56-4.12c.46.4,46.14,39.43,115.83,58.76,64.17,17.79,162.5,22,266.53-58.85a2.72,2.72,0,0,1,3.34,4.3C433.18,77.93,366.25,94.64,309.94,94.64Z"/><path class="cls-1" d="M227.82,31.51a8.29,8.29,0,0,1,5.75,2C246.46,45,178.39,64.41,178.39,64.41s32.8-32.9,49.43-32.9Zm0-5.44c-18.36,0-49.76,31-53.28,34.5a5.44,5.44,0,0,0,3.85,9.28,5.18,5.18,0,0,0,1.5-.21c21.34-6.08,57.59-18.2,60.51-30.93a9.41,9.41,0,0,0-3.2-9.28,13.62,13.62,0,0,0-9.38-3.36Z"/><path class="cls-1" d="M270.81,47.21a11.11,11.11,0,0,1,3.89.68c17.29,6.34-41.13,33.72-41.13,33.72s20.47-34.4,37.24-34.4Zm0-5.45c-19.3,0-39.66,33.27-41.91,37.07a5.44,5.44,0,0,0,4.68,8.23,5.36,5.36,0,0,0,2.3-.52c.47-.22,11.53-5.41,22.73-11.89,22.08-12.75,24.94-18.94,24.73-23.74-.08-1.72-.89-6-6.76-8.14a16.81,16.81,0,0,0-5.77-1Z"/><path class="cls-1" d="M314,52.64a9.35,9.35,0,0,1,2.78.43c16.71,5.19-29.94,38.44-29.94,38.44S298.62,52.65,314,52.64Zm0-5.44c-18.49,0-30.22,35.6-32.38,42.73A5.45,5.45,0,0,0,290,96c14.14-10.08,37.58-28.73,35.72-40.34-.35-2.15-1.76-6-7.32-7.74A15,15,0,0,0,314,47.2Z"/><path class="cls-1" d="M371.39,47a6.89,6.89,0,0,1,1.86.25c14.75,4.06-35,43.13-35,43.13S356.85,47,371.39,47Zm0-5.45c-16.82,0-33.49,35.73-38.2,46.68a5.45,5.45,0,0,0,8.37,6.44c.41-.33,10.19-8,19.92-17,18.95-17.6,20.7-24.34,19.76-29A8.64,8.64,0,0,0,374.7,42a12.22,12.22,0,0,0-3.3-.45Z"/><path class="cls-1" d="M413.41,38.86a3.85,3.85,0,0,1,.48,0C426,40,390.37,80.4,390.37,80.4s11.12-41.54,23-41.54Zm0-5.45c-14.53,0-24.63,31.88-28.29,45.58a5.44,5.44,0,0,0,2.68,6.21,5.47,5.47,0,0,0,6.66-1.2c.3-.34,7.41-8.41,14.28-17.56C421.58,49.35,423,42.85,421.25,38.36a7.81,7.81,0,0,0-6.84-4.9c-.33,0-.66-.05-1-.05Z"/><path class="cls-1" d="M450.78,29.85c10.55,0-19.5,34.84-19.5,34.84s8.41-34.53,19.36-34.84Zm0-5.44c-13.93.38-22,27.39-24.79,39a5.44,5.44,0,0,0,9.41,4.84c26.47-30.68,23.49-37.18,22.37-39.63a7.4,7.4,0,0,0-7-4.2Z"/><path class="cls-1" d="M481.06,9.3c9.68,0-15.65,37.36-15.65,37.36S468,11.7,480.13,9.4a4.61,4.61,0,0,1,.93-.1Zm0-5.44a10.32,10.32,0,0,0-2,.19c-15,2.86-18.44,33-19.13,42.2a5.44,5.44,0,0,0,3.64,5.55,5.26,5.26,0,0,0,1.79.3,5.43,5.43,0,0,0,4.5-2.39c22.5-33.18,19-39.8,17.84-42a7.38,7.38,0,0,0-6.68-3.87Z"/><path class="cls-1" d="M178.46,61.16s47.93,53,28.33,59.93a8.38,8.38,0,0,1-2.81.5c-17.62,0-25.52-60.43-25.52-60.43Zm0-5.45a5.58,5.58,0,0,0-2.28.5,5.45,5.45,0,0,0-3.11,5.65C175.06,77.15,183.2,127,204,127a13.9,13.9,0,0,0,4.63-.81,11.94,11.94,0,0,0,7.9-8.45c4.15-16.41-25-50.28-34-60.27a5.45,5.45,0,0,0-4-1.79Z"/><path class="cls-1" d="M230.69,80.81s43.43,38.54,27.3,43.74a7.64,7.64,0,0,1-2.41.39c-14.83,0-24.89-44.13-24.89-44.13Zm0-5.44A5.44,5.44,0,0,0,225.38,82c2.59,11.35,12.41,48.37,30.2,48.37a13.33,13.33,0,0,0,4.08-.65,10,10,0,0,0,7.14-7.53c2.65-12.66-21.84-36-32.5-45.47a5.41,5.41,0,0,0-3.61-1.37Z"/><path class="cls-1" d="M286.83,91.51s45.5,27.84,33.56,33a5.79,5.79,0,0,1-2.4.49c-12.22,0-31.16-33.53-31.16-33.53Zm0-5.44a5.45,5.45,0,0,0-4.74,8.12c4.81,8.52,21.62,36.3,35.9,36.3a11.43,11.43,0,0,0,4.57-.94,8.27,8.27,0,0,0,5.25-7.06c.3-4.31-1.89-10.11-19.76-23.25-9-6.65-18-12.14-18.38-12.37a5.41,5.41,0,0,0-2.84-.8Z"/><path class="cls-1" d="M338.21,90.41s58.09,14.53,46.57,23.18a8.24,8.24,0,0,1-5,1.48c-14.36,0-41.52-24.66-41.52-24.66Zm0-5.44a5.44,5.44,0,0,0-3.65,9.47c2.94,2.67,29.18,26.08,45.18,26.08a13.5,13.5,0,0,0,8.31-2.58,8.27,8.27,0,0,0,3.54-8.4c-.89-4.4-4.93-9.55-28.27-17.42-11.86-4-23.3-6.87-23.78-7A5.5,5.5,0,0,0,338.2,85Z"/><path class="cls-1" d="M390.37,80.4s56.95,7.47,48.54,16.3c-1.26,1.32-3.22,1.88-5.66,1.88-13.85,0-42.88-18.18-42.88-18.18Zm0-5.45A5.45,5.45,0,0,0,387.48,85c3.11,1.95,30.79,19,45.77,19,4.12,0,7.35-1.21,9.6-3.58a7.71,7.71,0,0,0,1.92-8.07c-1.64-4.62-7.31-8.65-29.68-13.3-12-2.5-23.52-4-24-4.08a5.65,5.65,0,0,0-.71,0Z"/><path class="cls-1" d="M431.28,64.69s56.24,2.89,45.84,9.23A14,14,0,0,1,470,75.44c-14.24,0-38.7-10.75-38.7-10.75Zm0-5.45a5.44,5.44,0,0,0-2.18,10.43c1,.46,25.68,11.21,40.89,11.21,4.16,0,7.42-.75,10-2.31,4.55-2.77,4-6.63,3.7-7.74-.91-3.59-2.28-9-52.09-11.58Z"/><path class="cls-1" d="M465.41,46.66s59.09,1.93,46.41,7.75a20.56,20.56,0,0,1-8.38,1.45c-15.16,0-38-9.2-38-9.2Zm0-5.45a5.45,5.45,0,0,0-2,10.5c1,.39,24,9.59,40.06,9.59a25.35,25.35,0,0,0,10.66-1.95c5.28-2.42,5.14-6.21,4.83-7.73-.82-4.09-1.75-8.72-53.34-10.4Z"/><path class="cls-1" d="M524.79,5.44a5.3,5.3,0,0,1,3.37,1.09C536.37,13,497.9,24.69,497.9,24.69S515.12,5.45,524.79,5.44Zm0-5.44C513.27,0,497,17.54,493.85,21.05a5.44,5.44,0,0,0,5.64,8.84c22.08-6.69,33.9-13.4,35.13-19.93a7.78,7.78,0,0,0-3.09-7.7A10.72,10.72,0,0,0,524.79,0Z"/></g></g></svg>